<?xml version="1.0" encoding="utf-8"?>
 
<!DOCTYPE svg PUBLIC "-//W3C//DTD SVG 1.1//EN" "http://www.w3.org/Graphics/SVG/1.1/DTD/svg11.dtd">
<svg version="1.1" id="Layer_1" xmlns="http://www.w3.org/2000/svg" xmlns:xlink="http://www.w3.org/1999/xlink" x="0px" y="0px"
	 width="167px" height="97px" viewBox="0 0 167 97" enable-background="new 0 0 167 97" xml:space="preserve">
<g>
	<g>
		<path fill="#00A6E0" d="M40.784,81.001c1.724-0.948,2.326-3.123,1.379-4.824c-0.948-1.723-3.123-2.326-4.824-1.378
			c-1.356,0.753-2.821,1.335-4.328,1.723c-1.465,0.387-3.016,0.581-4.608,0.581c-5.062,0-9.67-2.046-12.986-5.384
			c-3.316-3.316-5.384-7.925-5.384-12.985s2.046-9.669,5.384-12.986c3.316-3.316,7.903-5.383,12.986-5.383
			c1.636,0,3.272,0.215,4.823,0.646c1.594,0.431,3.102,1.055,4.501,1.874c1.701,0.99,3.876,0.431,4.867-1.271
			c0.99-1.701,0.431-3.876-1.271-4.867c-1.981-1.163-4.07-2.046-6.224-2.627c-0.668-0.172-1.314-0.323-1.981-0.452
			c-0.021-3.338,0.947-6.503,2.691-9.195c2.197-3.381,5.6-5.987,9.756-7.106c4.049-1.077,8.205-0.603,11.736,1.141
			c3.489,1.701,6.396,4.608,8.055,8.355c0.366,1.055,1.249,1.917,2.411,2.24c1.896,0.517,3.855-0.582,4.394-2.477l-3.445-0.947
			l3.424,0.947c0.15-0.517,0.323-1.12,0.56-1.831c0.216-0.646,0.431-1.227,0.625-1.723c2.605-6.525,7.623-11.349,13.588-13.912
			c5.987-2.563,12.943-2.843,19.468-0.215c5.319,2.132,9.604,5.922,12.383,10.574c2.757,4.63,4.027,10.143,3.381,15.764
			c-0.172,1.055,0.151,2.175,0.948,3.015c1.356,1.421,3.617,1.486,5.039,0.129l-2.455-2.584l2.455,2.584
			c0.301-0.28,0.624-0.517,1.012-0.732c0.388-0.216,0.818-0.388,1.271-0.496c1.594-0.431,3.209-0.172,4.522,0.582
			s2.348,2.024,2.778,3.618c0.172,0.625,0.236,1.292,0.193,1.917c-0.043,0.56-0.15,1.12-0.345,1.658
			c-0.322,0.667-0.452,1.443-0.301,2.218c0.366,1.938,2.239,3.209,4.156,2.843l0,0c3.574-0.668,7.106,0.086,9.992,1.895
			c2.821,1.788,5.018,4.587,5.986,8.033c0.021,0.043,0.021,0.107,0.043,0.15l0,0c0.97,3.618,0.431,7.279-1.249,10.315
			c-0.064,0.086-0.107,0.172-0.15,0.259l0,0c-1.766,3.036-4.673,5.427-8.313,6.438c-0.043,0.021-0.107,0.021-0.15,0.043l0,0
			c-0.861,0.237-1.745,0.388-2.628,0.431c-0.883,0.064-1.766,0.043-2.67-0.064c-1.96-0.236-3.726,1.163-3.963,3.123
			c-0.236,1.96,1.163,3.726,3.123,3.962c1.313,0.151,2.67,0.194,4.005,0.086c1.271-0.086,2.521-0.301,3.747-0.603
			c0.151-0.021,0.28-0.064,0.432-0.107c5.513-1.529,9.905-5.147,12.555-9.756l-3.08-1.787l3.08,1.787
			c0.064-0.107,0.107-0.215,0.172-0.323c2.52-4.544,3.381-10.035,1.981-15.44c-0.021-0.15-0.064-0.28-0.107-0.431
			c-1.465-5.211-4.781-9.454-9.066-12.146c-3.015-1.895-6.504-3.037-10.165-3.208c-0.021-1.055-0.172-2.11-0.431-3.145
			c-0.926-3.488-3.187-6.267-6.094-7.925c-2.671-1.55-5.901-2.153-9.109-1.507c-0.366-5.082-1.917-9.949-4.458-14.213
			c-3.554-5.987-9.045-10.833-15.85-13.567c-8.334-3.338-17.25-2.993-24.895,0.28c-6.849,2.929-12.706,8.162-16.259,15.204
			c-2.11-2.391-4.674-4.329-7.494-5.707c-5.04-2.455-10.94-3.166-16.69-1.615c-5.922,1.593-10.768,5.276-13.89,10.1
			c-2.412,3.726-3.79,8.141-3.833,12.749c-6.073,0.56-11.543,3.273-15.613,7.365c-4.608,4.608-7.473,10.983-7.473,18.025
			s2.864,13.416,7.473,18.024S21.36,84.23,28.402,84.23c2.132,0,4.285-0.279,6.396-0.818C36.887,82.853,38.89,82.056,40.784,81.001
			L40.784,81.001z M28.402,37.069v3.036c0.603,0.259,1.271,0.366,1.959,0.237c1.938-0.301,3.252-2.132,2.95-4.07L28.402,37.069
			L28.402,37.069z M28.402,40.105v-3.036l-2.111,0.323C26.485,38.641,27.325,39.632,28.402,40.105L28.402,40.105z"/>
		<path fill="#2a3756" d="M43.325,79.105c-0.301,1.099-1.033,2.067-2.11,2.67c-0.99,0.539-1.98,1.034-3.015,1.443
			c-1.033,0.409-2.089,0.754-3.188,1.033c-1.098,0.28-2.196,0.496-3.316,0.646c-1.119,0.15-2.218,0.216-3.316,0.216
			c-3.574,0-6.977-0.711-10.078-2.003c-3.23-1.336-6.138-3.295-8.571-5.729c-2.434-2.434-4.393-5.341-5.729-8.571
			C2.71,65.688,2,62.286,2,58.733c0-3.575,0.71-6.978,2.002-10.078c1.335-3.23,3.295-6.138,5.729-8.571
			c2.132-2.132,4.652-3.919,7.429-5.233c2.692-1.271,5.621-2.089,8.722-2.391l0,0c0.991-0.129,2.067-0.172,3.316-0.129
			c1.228,0.043,2.563,0.194,4.07,0.452h0.021c0.345,0.064,0.711,0.129,1.034,0.215c0.366,0.086,0.71,0.172,1.033,0.258
			c1.099,0.302,2.197,0.689,3.295,1.142c1.077,0.452,2.132,0.991,3.145,1.593c1.055,0.625,1.766,1.615,2.046,2.713
			c0.279,1.099,0.15,2.305-0.474,3.36c-0.625,1.055-1.615,1.766-2.714,2.046c-1.099,0.28-2.305,0.15-3.359-0.474
			c-0.646-0.388-1.335-0.732-2.067-1.034c-0.711-0.301-1.443-0.56-2.218-0.753c-0.754-0.215-1.529-0.366-2.283-0.453
			c-0.754-0.107-1.529-0.15-2.325-0.15c-2.369,0-4.631,0.474-6.677,1.313c-2.132,0.883-4.048,2.175-5.663,3.79
			c-1.615,1.615-2.907,3.531-3.79,5.664c-0.862,2.045-1.314,4.307-1.314,6.676c0,2.368,0.474,4.63,1.314,6.676
			c0.883,2.132,2.175,4.049,3.79,5.663c1.615,1.615,3.531,2.907,5.663,3.791c2.046,0.861,4.308,1.313,6.677,1.313
			c0.753,0,1.507-0.043,2.239-0.13c0.754-0.086,1.464-0.236,2.153-0.409c0.711-0.193,1.422-0.409,2.11-0.688
			c0.689-0.28,1.356-0.604,2.003-0.948c1.077-0.603,2.283-0.71,3.381-0.388c1.099,0.302,2.067,1.034,2.671,2.111
			C43.541,76.801,43.648,78.007,43.325,79.105L43.325,79.105z"/>
		<path fill="#2a3756" d="M49.248,80.699c-0.926-0.904-1.357-2.003-1.357-3.295V42.518c0-0.797,0.216-1.551,0.625-2.24
			s0.969-1.249,1.68-1.658s1.486-0.625,2.348-0.625c0.818,0,1.571,0.237,2.261,0.667s1.228,0.969,1.637,1.68
			c0.388,0.689,0.581,1.443,0.581,2.261v34.779c0,1.313-0.409,2.455-1.292,3.338c-0.904,0.904-2.024,1.292-3.252,1.292
			C51.229,82.013,50.152,81.582,49.248,80.699L49.248,80.699z M71.148,82.099c-2.239,0-4.285-0.517-6.137-1.55
			c-1.853-1.034-3.295-2.435-4.372-4.2c-1.076-1.766-1.615-3.704-1.615-5.793c0-2.11,0.539-4.048,1.594-5.857
			c1.056-1.809,2.52-3.252,4.372-4.307c1.852-1.056,3.919-1.572,6.181-1.572c1.614,0,3.101,0.259,4.479,0.775
			c1.379,0.517,2.606,1.249,3.704,2.196c0.668,0.581,1.249,1.206,1.744,1.873c0.496,0.689,0.927,1.4,1.249,2.111
			c0.323,0.732,0.561,1.507,0.732,2.282c0.151,0.797,0.237,1.572,0.237,2.369c0,1.313-0.216,2.627-0.668,3.876
			c-0.452,1.271-1.12,2.434-2.024,3.511c-0.904,1.055-1.98,1.96-3.23,2.67C75.499,81.582,73.432,82.099,71.148,82.099L71.148,82.099
			z M67.962,70.513c0,1.142,0.302,2.067,0.926,2.778c0.625,0.732,1.378,1.077,2.283,1.077c0.064,0,0.279-0.022,0.624-0.087
			c1.442-0.302,2.283-1.271,2.498-2.907c0.064-0.431,0.086-0.732,0.086-0.904c0-0.797-0.193-1.464-0.538-2.003
			c-0.646-1.098-1.529-1.637-2.67-1.637c-1.099,0-2.003,0.539-2.671,1.637C68.134,69.07,67.962,69.737,67.962,70.513L67.962,70.513z
			 M94.601,81.97c-3.144-0.366-5.491-1.399-6.999-3.102c-1.528-1.701-2.282-4.135-2.282-7.278v-7.989
			c0-0.861,0.215-1.637,0.624-2.326s0.969-1.249,1.68-1.658s1.486-0.604,2.326-0.604c1.249,0,2.325,0.452,3.208,1.357
			c0.884,0.904,1.336,2.002,1.336,3.316v7.882c0,0.775,0.172,1.356,0.538,1.723c0.302,0.366,0.689,0.603,1.185,0.732
			c0.043,0.021,0.107,0.021,0.15,0.021c0.947-0.021,1.615-0.259,2.024-0.732c0.345-0.345,0.517-0.926,0.517-1.723v-7.882
			c0-0.84,0.216-1.615,0.625-2.348c0.409-0.711,0.969-1.271,1.68-1.701c0.689-0.409,1.464-0.625,2.305-0.625
			c0.861,0,1.636,0.216,2.325,0.604c0.689,0.409,1.249,0.969,1.658,1.658s0.604,1.464,0.604,2.326v7.989
			c0,2.11-0.323,3.897-0.991,5.341c-0.646,1.442-1.68,2.584-3.036,3.424c-1.379,0.84-3.123,1.379-5.255,1.615
			c-0.818,0.086-1.508,0.129-2.089,0.129C96.13,82.099,95.419,82.056,94.601,81.97L94.601,81.97z M124.513,59.702L124.513,59.702
			c0.345,0.13,0.711-0.107,0.711-0.474v-5.6c0-1.249,0.431-2.325,1.313-3.208s1.96-1.335,3.23-1.335
			c0.818,0.021,1.571,0.236,2.261,0.646c0.689,0.431,1.249,0.99,1.637,1.701c0.409,0.711,0.604,1.465,0.604,2.283v23.623
			c0,0.884-0.194,1.681-0.582,2.348c-0.388,0.689-0.947,1.228-1.615,1.615c-0.646,0.366-1.356,0.561-2.153,0.582
			c-0.107,0-0.193-0.021-0.28-0.064l-3.639-2.003l0,0c-1.293,1.442-2.993,2.153-5.126,2.153c-0.538,0-1.206-0.064-1.981-0.194
			c-2.153-0.409-4.005-1.442-5.556-3.101s-2.563-3.683-3.015-6.073c-0.129-0.797-0.194-1.572-0.194-2.282
			c0-0.927,0.087-1.788,0.28-2.585c0.388-1.657,1.034-3.101,1.917-4.35c0.904-1.249,1.98-2.261,3.295-3.015
			c1.55-0.927,3.208-1.379,4.975-1.379C121.843,58.991,123.156,59.229,124.513,59.702L124.513,59.702z M119.193,70.405
			c0,1.098,0.302,1.981,0.926,2.67c0.625,0.689,1.379,1.034,2.262,1.034c0.797-0.021,1.442-0.302,1.981-0.818
			c0.517-0.517,0.861-1.249,1.033-2.197c0-0.021,0-0.064,0-0.107v-1.271c0-0.043,0-0.086-0.021-0.107
			c-0.323-1.551-1.12-2.455-2.412-2.778c-0.322-0.064-0.56-0.086-0.71-0.086c-0.754,0-1.422,0.259-1.96,0.797
			s-0.904,1.271-1.056,2.196C119.193,69.867,119.193,70.104,119.193,70.405L119.193,70.405z"/>
		<path fill="#00A6E0" d="M77.997,37.306l-5.384,16.258h-2.369l-5.362-16.258h3.295l3.273,10.595l3.273-10.595H77.997L77.997,37.306
			z M82.498,39.632h-3.036V37.22h3.036V39.632L82.498,39.632z M82.477,53.564h-2.972V41.656h2.972V53.564L82.477,53.564z
			 M88.549,39.632h-3.036V37.22h3.036V39.632L88.549,39.632z M88.527,53.564h-2.972V41.656h2.972V53.564L88.527,53.564z
			 M96.948,53.564h-1.615c-1.12,0-2.003-0.366-2.628-1.076c-0.538-0.625-0.817-1.4-0.817-2.326v-5.9h-1.25V42h1.25v-3.51h2.972V42
			h2.11v2.261h-2.11v5.707c0,0.71,0.344,1.076,1.033,1.076h1.077L96.948,53.564L96.948,53.564z M108.986,47.6
			c0,1.142-0.086,2.046-0.28,2.713c-0.194,0.754-0.56,1.379-1.077,1.917c-0.926,0.969-2.153,1.465-3.704,1.465
			c-1.528,0-2.756-0.496-3.682-1.465c-0.518-0.538-0.884-1.163-1.077-1.917c-0.172-0.667-0.28-1.571-0.28-2.713
			c0-2.132,0.452-3.682,1.379-4.63c0.904-0.969,2.132-1.443,3.66-1.443c1.529,0,2.757,0.474,3.683,1.443
			C108.534,43.939,108.986,45.468,108.986,47.6L108.986,47.6z M106.014,47.6c0-1.464-0.236-2.412-0.688-2.886
			c-0.345-0.344-0.818-0.517-1.4-0.517c-0.56,0-1.012,0.172-1.378,0.517c-0.452,0.453-0.689,1.421-0.689,2.886
			c0,1.486,0.237,2.434,0.689,2.907c0.345,0.345,0.797,0.517,1.378,0.517c0.582,0,1.034-0.172,1.4-0.517
			C105.799,50.055,106.014,49.086,106.014,47.6L106.014,47.6z M120.292,42.646l-2.239,2.261c-0.475-0.474-0.991-0.71-1.572-0.71
			c-0.496,0-0.927,0.172-1.293,0.517c-0.408,0.409-0.624,0.969-0.624,1.658v7.192h-2.972V41.656h2.907v1.141
			c0.711-0.861,1.723-1.271,2.993-1.271C118.612,41.527,119.56,41.915,120.292,42.646L120.292,42.646z"/>
		<text transform="matrix(1 0 0 1 47.877 94.1484)" fill="#00A6E0" font-family="'ArialMT'" font-size="8.8137">T</text>
		<text transform="matrix(1 0 0 1 52.2837 94.1484)" fill="#00A6E0" font-family="'ArialMT'" font-size="8.8137">echnologies PVT</text>
		<text transform="matrix(1 0 0 1 117.9395 94.1484)" fill="#00A6E0" font-family="'ArialMT'" font-size="8.8137">. L</text>
		<text transform="matrix(1 0 0 1 127.084 94.1484)" fill="#00A6E0" font-family="'ArialMT'" font-size="8.8137">TD.</text>
	</g>
	<g>
		<path fill="#00A6E0" d="M138.661,57.937h-0.538v-4.199h-1.486v-0.474h3.511v0.474h-1.486V57.937L138.661,57.937z"/>
		<path fill="#00A6E0" d="M142.925,57.937l-1.593-4.156h-0.021c0.021,0.323,0.043,0.71,0.043,1.162v2.973h-0.496v-4.673h0.818
			l1.486,3.854h0.021l1.486-3.854h0.818v4.673h-0.539V54.9c0-0.345,0.021-0.732,0.043-1.12h-0.021l-1.594,4.135h-0.452V57.937
			L142.925,57.937z"/>
	</g>
</g>
</svg>
